REM DIRINDEX 1\2,1\3,1\4
REM DIRNAME cjc153,folder01,folder02,folder03
TITLE ""
FILE "Track15.mp3" MP3
  TRACK 01 AUDIO
    TITLE "0:"
    INDEX 01 00:00:00
  TRACK 02 AUDIO
    TITLE "4:cjc153_0847"
    INDEX 01 00:00:07
  TRACK 03 AUDIO
    TITLE "0:"
    INDEX 01 00:02:08
  TRACK 04 AUDIO
    TITLE "2:cjc153_0848"
    INDEX 01 00:02:63
  TRACK 05 AUDIO
    TITLE "0:"
    INDEX 01 00:04:07
  TRACK 06 AUDIO
    TITLE "3:cjc153_0849"
    INDEX 01 00:04:40
  TRACK 07 AUDIO
    TITLE "0:"
    INDEX 01 00:05:61
  TRACK 08 AUDIO
    TITLE "2:cjc153_0850"
    INDEX 01 00:06:33
  TRACK 09 AUDIO
    TITLE "0:"
    INDEX 01 00:07:37
  TRACK 10 AUDIO
    TITLE "3:cjc153_0851"
    INDEX 01 00:07:70
  TRACK 11 AUDIO
    TITLE "0:"
    INDEX 01 00:09:04
  TRACK 12 AUDIO
    TITLE "2:cjc153_0852"
    INDEX 01 00:09:49
  TRACK 13 AUDIO
    TITLE "0:"
    INDEX 01 00:10:47
  TRACK 14 AUDIO
    TITLE "3:cjc153_0853"
    INDEX 01 00:11:03
  TRACK 15 AUDIO
    TITLE "0:"
    INDEX 01 00:12:01
  TRACK 16 AUDIO
    TITLE "2:cjc153_0854"
    INDEX 01 00:12:46
  TRACK 17 AUDIO
    TITLE "0:"
    INDEX 01 00:13:55
  TRACK 18 AUDIO
    TITLE "3:cjc153_0855"
    INDEX 01 00:14:27
  TRACK 19 AUDIO
    TITLE "0:"
    INDEX 01 00:15:40
  TRACK 20 AUDIO
    TITLE "2:cjc153_0856"
    INDEX 01 00:16:26
  TRACK 21 AUDIO
    TITLE "0:"
    INDEX 01 00:17:29
  TRACK 22 AUDIO
    TITLE "3:cjc153_0857"
    INDEX 01 00:17:61
  TRACK 23 AUDIO
    TITLE "0:"
    INDEX 01 00:18:64
  TRACK 24 AUDIO
    TITLE "2:cjc153_0858"
    INDEX 01 00:19:36
  TRACK 25 AUDIO
    TITLE "0:"
    INDEX 01 00:20:32
  TRACK 26 AUDIO
    TITLE "3:cjc153_0859"
    INDEX 01 00:20:65
  TRACK 27 AUDIO
    TITLE "0:"
    INDEX 01 00:21:64
  TRACK 28 AUDIO
    TITLE "2:cjc153_0860"
    INDEX 01 00:22:34
  TRACK 29 AUDIO
    TITLE "0:"
    INDEX 01 00:23:40
  TRACK 30 AUDIO
    TITLE "3:cjc153_0861"
    INDEX 01 00:23:73
  TRACK 31 AUDIO
    TITLE "0:"
    INDEX 01 00:25:01
  TRACK 32 AUDIO
    TITLE "2:cjc153_0862"
    INDEX 01 00:25:48
  TRACK 33 AUDIO
    TITLE "0:"
    INDEX 01 00:26:67
  TRACK 34 AUDIO
    TITLE "3:cjc153_0863"
    INDEX 01 00:27:26
  TRACK 35 AUDIO
    TITLE "0:"
    INDEX 01 00:28:49
  TRACK 36 AUDIO
    TITLE "2:cjc153_0864"
    INDEX 01 00:29:21
  TRACK 37 AUDIO
    TITLE "0:"
    INDEX 01 00:30:22
  TRACK 38 AUDIO
    TITLE "3:cjc153_0865"
    INDEX 01 00:30:55
  TRACK 39 AUDIO
    TITLE "0:"
    INDEX 01 00:31:59
  TRACK 40 AUDIO
    TITLE "2:cjc153_0866"
    INDEX 01 00:32:27
  TRACK 41 AUDIO
    TITLE "0:"
    INDEX 01 00:33:32
  TRACK 42 AUDIO
    TITLE "3:cjc153_0867"
    INDEX 01 00:33:66
  TRACK 43 AUDIO
    TITLE "0:"
    INDEX 01 00:34:71
  TRACK 44 AUDIO
    TITLE "2:cjc153_0868"
    INDEX 01 00:35:41
  TRACK 45 AUDIO
    TITLE "0:"
    INDEX 01 00:36:35
  TRACK 46 AUDIO
    TITLE "3:cjc153_0869"
    INDEX 01 00:36:68
  TRACK 47 AUDIO
    TITLE "0:"
    INDEX 01 00:37:65
  TRACK 48 AUDIO
    TITLE "2:cjc153_0870"
    INDEX 01 00:38:35
  TRACK 49 AUDIO
    TITLE "0:"
    INDEX 01 00:39:58
  TRACK 50 AUDIO
    TITLE "3:cjc153_0871"
    INDEX 01 00:40:15
  TRACK 51 AUDIO
    TITLE "0:"
    INDEX 01 00:41:40
  TRACK 52 AUDIO
    TITLE "2:cjc153_0872"
    INDEX 01 00:42:10
  TRACK 53 AUDIO
    TITLE "0:"
    INDEX 01 00:43:13
  TRACK 54 AUDIO
    TITLE "3:cjc153_0873"
    INDEX 01 00:43:44
  TRACK 55 AUDIO
    TITLE "0:"
    INDEX 01 00:44:52
  TRACK 56 AUDIO
    TITLE "2:cjc153_0874"
    INDEX 01 00:45:20
  TRACK 57 AUDIO
    TITLE "0:"
    INDEX 01 00:46:54
  TRACK 58 AUDIO
    TITLE "3:cjc153_0875"
    INDEX 01 00:47:13
  TRACK 59 AUDIO
    TITLE "0:"
    INDEX 01 00:48:49
  TRACK 60 AUDIO
    TITLE "2:cjc153_0876"
    INDEX 01 00:49:20
  TRACK 61 AUDIO
    TITLE "0:"
    INDEX 01 00:50:50
  TRACK 62 AUDIO
    TITLE "3:cjc153_0877"
    INDEX 01 00:51:09
  TRACK 63 AUDIO
    TITLE "0:"
    INDEX 01 00:52:43
  TRACK 64 AUDIO
    TITLE "2:cjc153_0878"
    INDEX 01 00:53:13
  TRACK 65 AUDIO
    TITLE "0:"
    INDEX 01 00:54:25
  TRACK 66 AUDIO
    TITLE "3:cjc153_0879"
    INDEX 01 00:54:58
  TRACK 67 AUDIO
    TITLE "0:"
    INDEX 01 00:56:04
  TRACK 68 AUDIO
    TITLE "2:cjc153_0880"
    INDEX 01 00:56:47
  TRACK 69 AUDIO
    TITLE "0:"
    INDEX 01 00:57:52
  TRACK 70 AUDIO
    TITLE "3:cjc153_0881"
    INDEX 01 00:58:13
  TRACK 71 AUDIO
    TITLE "0:"
    INDEX 01 00:59:26
  TRACK 72 AUDIO
    TITLE "2:cjc153_0882"
    INDEX 01 00:59:71
  TRACK 73 AUDIO
    TITLE "0:"
    INDEX 01 01:01:01
  TRACK 74 AUDIO
    TITLE "3:cjc153_0883"
    INDEX 01 01:01:33
  TRACK 75 AUDIO
    TITLE "0:"
    INDEX 01 01:02:44
  TRACK 76 AUDIO
    TITLE "2:cjc153_0884"
    INDEX 01 01:03:12
  TRACK 77 AUDIO
    TITLE "0:"
    INDEX 01 01:04:58
  TRACK 78 AUDIO
    TITLE "3:cjc153_0885"
    INDEX 01 01:05:19
  TRACK 79 AUDIO
    TITLE "0:"
    INDEX 01 01:06:61
  TRACK 80 AUDIO
    TITLE "2:cjc153_0886"
    INDEX 01 01:07:35
  TRACK 81 AUDIO
    TITLE "0:"
    INDEX 01 01:08:58
  TRACK 82 AUDIO
    TITLE "3:cjc153_0887"
    INDEX 01 01:09:14
  TRACK 83 AUDIO
    TITLE "0:"
    INDEX 01 01:10:43
  TRACK 84 AUDIO
    TITLE "2:cjc153_0888"
    INDEX 01 01:11:13
  TRACK 85 AUDIO
    TITLE "0:"
    INDEX 01 01:12:32
  TRACK 86 AUDIO
    TITLE "3:cjc153_0889"
    INDEX 01 01:12:66
  TRACK 87 AUDIO
    TITLE "0:"
    INDEX 01 01:14:14
  TRACK 88 AUDIO
    TITLE "2:cjc153_0890"
    INDEX 01 01:14:59
  TRACK 89 AUDIO
    TITLE "0:"
    INDEX 01 01:16:05
  TRACK 90 AUDIO
    TITLE "3:cjc153_0891"
    INDEX 01 01:16:42
  TRACK 91 AUDIO
    TITLE "0:"
    INDEX 01 01:17:67
  TRACK 92 AUDIO
    TITLE "2:cjc153_0892"
    INDEX 01 01:18:41
  TRACK 93 AUDIO
    TITLE "0:"
    INDEX 01 01:19:44
  TRACK 94 AUDIO
    TITLE "3:cjc153_0893"
    INDEX 01 01:20:02
  TRACK 95 AUDIO
    TITLE "0:"
    INDEX 01 01:21:08
  TRACK 96 AUDIO
    TITLE "2:cjc153_0894"
    INDEX 01 01:21:53
  TRACK 97 AUDIO
    TITLE "0:"
    INDEX 01 01:22:58
  TRACK 98 AUDIO
    TITLE "3:cjc153_0895"
    INDEX 01 01:23:15
  TRACK 99 AUDIO
    TITLE "0:"
    INDEX 01 01:24:22
  TRACK 100 AUDIO
    TITLE "2:cjc153_0896"
    INDEX 01 01:24:67
  TRACK 101 AUDIO
    TITLE "0:"
    INDEX 01 01:26:17
  TRACK 102 AUDIO
    TITLE "3:cjc153_0897"
    INDEX 01 01:26:48
  TRACK 103 AUDIO
    TITLE "0:"
    INDEX 01 01:28:02
  TRACK 104 AUDIO
    TITLE "2:cjc153_0898"
    INDEX 01 01:28:45
  TRACK 105 AUDIO
    TITLE "0:"
    INDEX 01 01:30:32
  TRACK 106 AUDIO
    TITLE "3:cjc153_0899"
    INDEX 01 01:30:62
  TRACK 107 AUDIO
    TITLE "0:"
    INDEX 01 01:32:49
  TRACK 108 AUDIO
    TITLE "2:cjc153_0900"
    INDEX 01 01:33:21
  TRACK 109 AUDIO
    TITLE "0:"
    INDEX 01 01:34:40
  TRACK 110 AUDIO
    TITLE "3:cjc153_0901"
    INDEX 01 01:34:73
  TRACK 111 AUDIO
    TITLE "0:"
    INDEX 01 01:36:19
  TRACK 112 AUDIO
    TITLE "2:cjc153_0902"
    INDEX 01 01:36:64
  TRACK 113 AUDIO
    TITLE "0:"
    INDEX 01 01:37:69
  TRACK 114 AUDIO
    TITLE "3:cjc153_0903"
    INDEX 01 01:38:26
  TRACK 115 AUDIO
    TITLE "0:"
    INDEX 01 01:39:35
  TRACK 116 AUDIO
    TITLE "2:cjc153_0904"
    INDEX 01 01:40:03
  TRACK 117 AUDIO
    TITLE "0:"
    INDEX 01 01:41:16
  TRACK 118 AUDIO
    TITLE "3:cjc153_0905"
    INDEX 01 01:41:50
  TRACK 119 AUDIO
    TITLE "0:"
    INDEX 01 01:42:71
  TRACK 120 AUDIO
    TITLE "2:cjc153_0906"
    INDEX 01 01:43:41
  TRACK 121 AUDIO
    TITLE "0:"
    INDEX 01 01:44:50
  TRACK 122 AUDIO
    TITLE "3:cjc153_0907"
    INDEX 01 01:45:08
  TRACK 123 AUDIO
    TITLE "0:"
    INDEX 01 01:46:19
  TRACK 124 AUDIO
    TITLE "2:cjc153_0908"
    INDEX 01 01:46:65
  TRACK 125 AUDIO
    TITLE "0:"
    INDEX 01 01:48:07
  TRACK 126 AUDIO
    TITLE "3:cjc153_0909"
    INDEX 01 01:48:42
  TRACK 127 AUDIO
    TITLE "0:"
    INDEX 01 01:49:61
  TRACK 128 AUDIO
    TITLE "2:cjc153_0910"
    INDEX 01 01:50:31
  TRACK 129 AUDIO
    TITLE "0:"
    INDEX 01 01:51:40
  TRACK 130 AUDIO
    TITLE "3:cjc153_0911"
    INDEX 01 01:51:74
  TRACK 131 AUDIO
    TITLE "0:"
    INDEX 01 01:53:08
  TRACK 132 AUDIO
    TITLE "2:cjc153_0912"
    INDEX 01 01:53:53
  TRACK 133 AUDIO
    TITLE "0:"
    INDEX 01 01:54:52
  TRACK 134 AUDIO
    TITLE "3:cjc153_0913"
    INDEX 01 01:55:11
  TRACK 135 AUDIO
    TITLE "0:"
    INDEX 01 01:56:20
  TRACK 136 AUDIO
    TITLE "2:cjc153_0914"
    INDEX 01 01:56:63
  TRACK 137 AUDIO
    TITLE "0:"
    INDEX 01 01:58:07
  TRACK 138 AUDIO
    TITLE "3:cjc153_0915"
    INDEX 01 01:58:40
  TRACK 139 AUDIO
    TITLE "0:"
    INDEX 01 01:59:67
  TRACK 140 AUDIO
    TITLE "2:cjc153_0916"
    INDEX 01 02:00:35
  TRACK 141 AUDIO
    TITLE "0:"
    INDEX 01 02:01:31
  TRACK 142 AUDIO
    TITLE "3:cjc153_0917"
    INDEX 01 02:01:62
  TRACK 143 AUDIO
    TITLE "0:"
    INDEX 01 02:02:64
  TRACK 144 AUDIO
    TITLE "2:cjc153_0918"
    INDEX 01 02:03:32
  TRACK 145 AUDIO
    TITLE "0:"
    INDEX 01 02:04:37
  TRACK 146 AUDIO
    TITLE "3:cjc153_0919"
    INDEX 01 02:04:70
  TRACK 147 AUDIO
    TITLE "0:"
    INDEX 01 02:06:01
  TRACK 148 AUDIO
    TITLE "2:cjc153_0920"
    INDEX 01 02:06:46
  TRACK 149 AUDIO
    TITLE "0:"
    INDEX 01 02:07:49
  TRACK 150 AUDIO
    TITLE "3:cjc153_0921"
    INDEX 01 02:08:07
  TRACK 151 AUDIO
    TITLE "0:"
    INDEX 01 02:09:21
  TRACK 152 AUDIO
    TITLE "2:cjc153_0922"
    INDEX 01 02:09:64
  TRACK 153 AUDIO
    TITLE "0:"
    INDEX 01 02:10:67
  TRACK 154 AUDIO
    TITLE "3:cjc153_0923"
    INDEX 01 02:11:23
  TRACK 155 AUDIO
    TITLE "0:"
    INDEX 01 02:12:31
  TRACK 156 AUDIO
    TITLE "2:cjc153_0924"
    INDEX 01 02:13:03
  TRACK 157 AUDIO
    TITLE "0:"
    INDEX 01 02:14:14
  TRACK 158 AUDIO
    TITLE "3:cjc153_0925"
    INDEX 01 02:14:45
  TRACK 159 AUDIO
    TITLE "0:"
    INDEX 01 02:15:56
  TRACK 160 AUDIO
    TITLE "2:cjc153_0926"
    INDEX 01 02:16:26
  TRACK 161 AUDIO
    TITLE "0:"
    INDEX 01 02:17:34
  TRACK 162 AUDIO
    TITLE "3:cjc153_0927"
    INDEX 01 02:17:67
  TRACK 163 AUDIO
    TITLE "0:"
    INDEX 01 02:19:01
  TRACK 164 AUDIO
    TITLE "2:cjc153_0928"
    INDEX 01 02:19:48
  TRACK 165 AUDIO
    TITLE "0:"
    INDEX 01 02:20:50
  TRACK 166 AUDIO
    TITLE "3:cjc153_0929"
    INDEX 01 02:21:06
  TRACK 167 AUDIO
    TITLE "0:"
    INDEX 01 02:22:11
  TRACK 168 AUDIO
    TITLE "2:cjc153_0930"
    INDEX 01 02:22:54
  TRACK 169 AUDIO
    TITLE "0:"
    INDEX 01 02:23:68
  TRACK 170 AUDIO
    TITLE "3:cjc153_0931"
    INDEX 01 02:24:26
  TRACK 171 AUDIO
    TITLE "0:"
    INDEX 01 02:25:49
  TRACK 172 AUDIO
    TITLE "2:cjc153_0932"
    INDEX 01 02:26:21
  TRACK 173 AUDIO
    TITLE "0:"
    INDEX 01 02:27:34
  TRACK 174 AUDIO
    TITLE "3:cjc153_0933"
    INDEX 01 02:27:65
  TRACK 175 AUDIO
    TITLE "0:"
    INDEX 01 02:29:11
